<svg width="24" height="25" viewBox="0 0 24 25" fill="none" xmlns="http://www.w3.org/2000/svg">
<g clip-path="url(#clip0_26_148)">
<path d="M12.836 0.635685C11.1216 0.514842 9.40136 0.766388 7.79178 1.3733C6.18221 1.98022 4.72082 2.92834 3.50652 4.15351C2.29221 5.37869 1.35331 6.85233 0.753348 8.47471C0.153389 10.0971 -0.0936311 11.8304 0.029003 13.5573C0.470003 19.9571 6.082 24.7845 13.083 24.7845H19C20.3256 24.7829 21.5964 24.2517 22.5338 23.3074C23.4711 22.3632 23.9984 21.083 24 19.7476V13.0385C24.0373 9.9332 22.9071 6.92865 20.8363 4.62808C18.7655 2.32752 15.9075 0.901267 12.836 0.635685ZM18.7 10.3911L11.907 17.1476C11.5322 17.5237 11.0246 17.7349 10.4955 17.7349C9.9664 17.7349 9.45885 17.5237 9.084 17.1476L5.3 13.4162C5.11037 13.2292 5.00226 12.974 4.99945 12.7067C4.99663 12.4393 5.09935 12.1818 5.285 11.9908C5.47065 11.7998 5.72403 11.6909 5.9894 11.688C6.25476 11.6852 6.51037 11.7887 6.7 11.9757L10.493 15.71L17.299 8.96063C17.4909 8.79051 17.7403 8.7009 17.9957 8.71021C18.2512 8.71951 18.4935 8.82704 18.6727 9.01068C18.8519 9.19432 18.9545 9.44014 18.9594 9.69763C18.9643 9.95511 18.8711 10.2047 18.699 10.3951L18.7 10.3911Z" fill="#2D3194"/>
</g>
<defs>
<clipPath id="clip0_26_148">
<rect width="24" height="24.177" fill="white" transform="translate(0 0.607666)"/>
</clipPath>
</defs>
</svg>
