<svg width="26" height="26" viewBox="0 0 26 26" fill="none" xmlns="http://www.w3.org/2000/svg">
<g clip-path="url(#clip0_14_38)">
<path d="M3.44662 25.0093C4.00563 25.2482 4.62367 25.3131 5.22012 25.1955C5.81656 25.0779 6.36371 24.7833 6.79019 24.35L12.815 18.358L18.8397 24.35C19.1206 24.6351 19.4553 24.8615 19.8243 25.0163C20.1933 25.1712 20.5894 25.2512 20.9896 25.252C21.4009 25.2508 21.808 25.1683 22.1874 25.0093C22.751 24.7812 23.2327 24.3885 23.5696 23.8825C23.9066 23.3764 24.0831 22.7805 24.0762 22.1725V6.01877C24.0746 4.6617 23.5348 3.36067 22.5752 2.40107C21.6156 1.44147 20.3145 0.90165 18.9575 0.900024L6.67246 0.900024C5.31538 0.90165 4.01435 1.44147 3.05475 2.40107C2.09515 3.36067 1.55533 4.6617 1.55371 6.01877V22.1725C1.5471 22.7809 1.72424 23.3772 2.06196 23.8833C2.39968 24.3895 2.88227 24.7819 3.44662 25.0093Z" fill="white"/>
</g>
<defs>
<clipPath id="clip0_14_38">
<rect width="24.57" height="24.57" fill="white" transform="translate(0.529968 0.900024)"/>
</clipPath>
</defs>
</svg>
