<svg width="16" height="16" viewBox="0 0 16 16" fill="none" xmlns="http://www.w3.org/2000/svg">
<path d="M13.3369 9.81544C12.7782 9.26386 12.0807 9.26386 11.5256 9.81544C11.1021 10.2354 10.6787 10.6553 10.2623 11.0823C10.1484 11.1997 10.0523 11.2246 9.91355 11.1464C9.63954 10.9969 9.34774 10.8759 9.0844 10.7122C7.85669 9.93999 6.82826 8.94715 5.91726 7.82975C5.46532 7.27461 5.0632 6.68033 4.78207 6.01131C4.72513 5.87609 4.73581 5.78712 4.84613 5.6768C5.2696 5.26757 5.68239 4.84765 6.09875 4.42774C6.6788 3.84413 6.6788 3.16088 6.09519 2.57371C5.76424 2.23921 5.43329 1.91182 5.10234 1.57731C4.76072 1.23568 4.42265 0.890502 4.07747 0.552436C3.51877 0.00797143 2.82129 0.00797156 2.26615 0.555994C1.83912 0.975908 1.42988 1.4065 0.995734 1.81929C0.593614 2.20006 0.390774 2.66624 0.348071 3.2107C0.280458 4.09679 0.497532 4.93306 0.803571 5.74798C1.42988 7.43475 2.38358 8.93291 3.54012 10.3065C5.10234 12.1641 6.96704 13.6338 9.14846 14.6943C10.1306 15.1711 11.1484 15.5377 12.2551 15.5981C13.0166 15.6409 13.6785 15.4487 14.2088 14.8544C14.5717 14.4487 14.981 14.0786 15.3653 13.6907C15.9347 13.1143 15.9382 12.4168 15.3724 11.8474C14.6963 11.1677 14.0166 10.4916 13.3369 9.81544Z" fill="#929AA2"/>
</svg>
