<svg width="12" height="7" viewBox="0 0 12 7" fill="none" xmlns="http://www.w3.org/2000/svg">
<path d="M11.4394 0.648085C11.3337 0.542315 11.2082 0.45841 11.0701 0.401164C10.9319 0.343918 10.7839 0.314453 10.6343 0.314453C10.4848 0.314453 10.3367 0.343918 10.1986 0.401164C10.0605 0.45841 9.93495 0.542315 9.82925 0.648085L6.34935 4.12722C6.27821 4.19835 6.18172 4.2383 6.08112 4.2383C5.98051 4.2383 5.88403 4.19835 5.81288 4.12722L2.33375 0.648085C2.12032 0.434561 1.83082 0.314564 1.52892 0.314493C1.22702 0.314422 0.937459 0.434282 0.723935 0.647706C0.51041 0.86113 0.390414 1.15063 0.390343 1.45253C0.390272 1.75443 0.510132 2.04399 0.723556 2.25752L4.20345 5.73741C4.45007 5.98405 4.74285 6.1797 5.06509 6.31319C5.38733 6.44667 5.7327 6.51538 6.0815 6.51538C6.43029 6.51538 6.77566 6.44667 7.0979 6.31319C7.42014 6.1797 7.71292 5.98405 7.95954 5.73741L11.4394 2.25752C11.6528 2.04407 11.7727 1.75461 11.7727 1.4528C11.7727 1.15099 11.6528 0.861532 11.4394 0.648085Z" fill="black"/>
</svg>
