<svg width="19" height="20" viewBox="0 0 19 20" fill="none" xmlns="http://www.w3.org/2000/svg">
<path d="M9.50007 12.8523C11.1365 12.8523 12.463 11.5258 12.463 9.88938C12.463 8.25299 11.1365 6.92642 9.50007 6.92642C7.86367 6.92642 6.53711 8.25299 6.53711 9.88938C6.53711 11.5258 7.86367 12.8523 9.50007 12.8523Z" fill="white"/>
<path d="M13.5741 0.629608H5.42597C4.05125 0.631165 2.73328 1.17796 1.76121 2.15003C0.789135 3.12211 0.242341 4.44007 0.240784 5.81479V13.9629C0.242341 15.3377 0.789135 16.6556 1.76121 17.6277C2.73328 18.5998 4.05125 19.1466 5.42597 19.1481H13.5741C14.9488 19.1466 16.2668 18.5998 17.2389 17.6277C18.2109 16.6556 18.7577 15.3377 18.7593 13.9629V5.81479C18.7577 4.44007 18.2109 3.12211 17.2389 2.15003C16.2668 1.17796 14.9488 0.631165 13.5741 0.629608ZM9.50004 14.3333C8.62101 14.3333 7.76173 14.0726 7.03084 13.5843C6.29996 13.0959 5.7303 12.4018 5.39391 11.5897C5.05752 10.7776 4.96951 9.88394 5.141 9.0218C5.31249 8.15966 5.73578 7.36774 6.35735 6.74617C6.97891 6.1246 7.77084 5.70131 8.63297 5.52982C9.49511 5.35833 10.3887 5.44635 11.2009 5.78274C12.013 6.11913 12.7071 6.68878 13.1955 7.41967C13.6838 8.15055 13.9445 9.00984 13.9445 9.88887C13.9432 11.0672 13.4745 12.1969 12.6413 13.0301C11.8081 13.8633 10.6784 14.332 9.50004 14.3333ZM14.3149 6.18516C14.0951 6.18516 13.8803 6.12 13.6976 5.99791C13.5148 5.87582 13.3724 5.70228 13.2883 5.49926C13.2042 5.29623 13.1822 5.07282 13.2251 4.85728C13.268 4.64175 13.3738 4.44377 13.5292 4.28838C13.6846 4.13299 13.8826 4.02716 14.0981 3.98429C14.3136 3.94142 14.537 3.96342 14.7401 4.04752C14.9431 4.13162 15.1166 4.27403 15.2387 4.45675C15.3608 4.63947 15.426 4.8543 15.426 5.07405C15.426 5.36874 15.3089 5.65135 15.1005 5.85973C14.8922 6.0681 14.6095 6.18516 14.3149 6.18516Z" fill="white"/>
</svg>
