<svg width="22" height="18" viewBox="0 0 22 18" fill="none" xmlns="http://www.w3.org/2000/svg">
<path d="M15.8728 5.7538C16.5117 5.11491 17.146 3.62417 14.4839 5.43435C11.9972 7.14578 9.49358 8.83259 6.9735 10.4945C6.58975 10.6681 6.17488 10.7622 5.75382 10.7714C5.33276 10.7805 4.91419 10.7045 4.52327 10.5478C2.92605 10.0686 1.06146 9.42972 1.06146 9.42972C1.06146 9.42972 -0.211686 8.62995 1.96771 7.7781C1.96771 7.7781 11.1818 3.99685 14.3774 2.66467C15.602 2.13227 19.7559 0.428563 19.7559 0.428563C19.7559 0.428563 21.6737 -0.317964 21.514 1.49338C21.4608 2.23875 21.0348 4.84986 20.6089 7.67162C19.9689 11.6658 19.2767 16.0339 19.2767 16.0339C19.2767 16.0339 19.1703 17.2584 18.2652 17.4714C17.2963 17.455 16.3601 17.118 15.6031 16.5131C15.3902 16.3533 11.6089 13.9563 10.2235 12.785C10.0826 12.6896 9.96808 12.56 9.89067 12.4084C9.81326 12.2568 9.77546 12.0881 9.78077 11.918C9.78609 11.7478 9.83434 11.5818 9.92106 11.4353C10.0078 11.2888 10.1301 11.1667 10.2767 11.0802C12.1769 9.34167 14.0426 7.56586 15.8728 5.7538Z" fill="white"/>
</svg>
