<svg width="34" height="33" viewBox="0 0 34 33" fill="none" xmlns="http://www.w3.org/2000/svg">
<rect width="34" height="32.4186" rx="3.95349" fill="#FAFAFA"/>
<g filter="url(#filter0_d_12_2)">
<path d="M17 26C22.5228 26 27 21.5228 27 16C27 10.4772 22.5228 6 17 6C11.4772 6 7 10.4772 7 16C7 21.5228 11.4772 26 17 26Z" fill="#F0F0F0"/>
<path d="M26.378 19.4782C26.78 18.3949 27 17.2232 27 16C27 14.7768 26.78 13.6051 26.378 12.5218H7.62199C7.22004 13.6051 7 14.7768 7 16C7 17.2232 7.22004 18.3949 7.62199 19.4782L17 20.3478L26.378 19.4782Z" fill="#0052B4"/>
<path d="M17 26C21.2996 26 24.9651 23.2863 26.378 19.4782H7.62199C9.03492 23.2863 12.7004 26 17 26Z" fill="#D80027"/>
</g>
<defs>
<filter id="filter0_d_12_2" x="4.2" y="3.2" width="25.6" height="25.6" filterUnits="userSpaceOnUse" color-interpolation-filters="sRGB">
<feFlood flood-opacity="0" result="BackgroundImageFix"/>
<feColorMatrix in="SourceAlpha" type="matrix" values="0 0 0 0 0 0 0 0 0 0 0 0 0 0 0 0 0 0 127 0" result="hardAlpha"/>
<feOffset/>
<feGaussianBlur stdDeviation="1.4"/>
<feComposite in2="hardAlpha" operator="out"/>
<feColorMatrix type="matrix" values="0 0 0 0 0 0 0 0 0 0 0 0 0 0 0 0 0 0 0.63 0"/>
<feBlend mode="normal" in2="BackgroundImageFix" result="effect1_dropShadow_12_2"/>
<feBlend mode="normal" in="SourceGraphic" in2="effect1_dropShadow_12_2" result="shape"/>
</filter>
</defs>
</svg>
