<svg width="150" height="62" viewBox="0 0 150 62" fill="none" xmlns="http://www.w3.org/2000/svg">
<path d="M4.67332 30.0565V47.5047H0V20.5251C0.44918 20.5251 0.876825 20.5251 1.30447 20.5251C2.37512 20.5251 3.44577 20.5384 4.51334 20.5184C4.79639 20.5118 4.95329 20.6083 5.09789 20.868C7.89142 25.8085 10.6973 30.7423 13.4969 35.6795C14.0046 36.575 14.5091 37.4706 15.0168 38.3661C15.0383 38.4061 15.0722 38.4394 15.1521 38.5426V20.555H19.807V47.5114C19.6993 47.518 19.5917 47.5347 19.484 47.5347C18.0195 47.5347 16.5581 47.528 15.0937 47.5447C14.8291 47.5447 14.6999 47.4348 14.5738 47.2118C11.3341 41.5388 8.08525 35.8693 4.83946 30.1963C4.80869 30.1431 4.77485 30.0898 4.74408 30.0365C4.71947 30.0432 4.69486 30.0499 4.67332 30.0565Z" fill="white"/>
<path d="M97.5122 28.009C95.9031 28.3353 94.3125 28.6516 92.725 28.9812C92.4758 29.0344 92.4758 28.8547 92.4235 28.6949C91.9528 27.22 91.1006 26.0981 89.8023 25.399C88.304 24.59 86.7103 24.55 85.1197 24.9062C82.3323 25.5355 80.634 27.4464 80.0095 30.4127C79.3973 33.3224 79.4465 36.2354 80.5418 39.012C81.5632 41.6021 83.4491 43.0236 86.0488 43.2933C88.4732 43.5463 90.5868 42.6508 92.5435 41.1992C92.6419 41.126 92.7527 40.9795 92.7527 40.863C92.7681 39.801 92.7619 38.739 92.7619 37.637H87.0026V33.086H97.869V33.5488C97.869 36.8347 97.866 40.1173 97.8752 43.4032C97.8752 43.7261 97.7921 43.9392 97.5583 44.1456C95.5954 45.8867 93.3249 46.9387 90.8791 47.538C87.4579 48.3769 84.0921 48.2271 80.874 46.5626C78.2251 45.1909 76.4407 42.9437 75.45 39.9808C73.9456 35.483 73.961 31.0053 75.973 26.694C77.7267 22.932 80.6402 20.7881 84.5075 20.2188C86.8549 19.8725 89.1962 19.9391 91.4728 20.7115C94.7463 21.8234 96.7092 24.2704 97.5183 27.8426C97.5275 27.8792 97.5183 27.9192 97.5122 28.009Z" fill="white"/>
<path d="M106.348 33.9417C104.893 33.6587 103.471 33.379 102.013 33.0961C102.287 31.9708 102.718 30.9754 103.361 30.0865C104.354 28.7082 105.714 28.0257 107.262 27.7494C109.342 27.3765 111.421 27.4198 113.486 27.8992C114.326 28.0956 115.079 28.5085 115.769 29.0644C116.772 29.8701 117.255 30.992 117.359 32.3004C117.448 33.4257 117.501 34.5542 117.507 35.6828C117.519 37.4373 117.482 39.1918 117.467 40.9463C117.445 43.2001 117.495 45.444 118.571 47.5314C118.421 47.5447 118.328 47.5613 118.239 47.5613C116.861 47.5613 115.486 47.5547 114.107 47.568C113.867 47.568 113.75 47.4848 113.686 47.2484C113.526 46.6658 113.353 46.0865 113.169 45.4506C112.969 45.6371 112.793 45.8069 112.609 45.97C110.111 48.1373 107.336 48.6933 104.404 47.275C102.309 46.2596 101.398 44.2954 101.533 41.8252C101.656 39.5347 102.742 37.95 104.696 37.0644C106.053 36.4519 107.499 36.2022 108.923 35.8626C110.095 35.5863 111.249 35.2301 112.415 34.9238C112.726 34.8439 112.833 34.6641 112.793 34.3345C112.772 34.1514 112.797 33.9617 112.778 33.7786C112.637 32.4336 112.154 31.831 110.895 31.6379C110.163 31.5247 109.403 31.5147 108.665 31.5846C107.776 31.6712 107.12 32.2272 106.717 33.0961C106.591 33.3657 106.477 33.6454 106.348 33.945V33.9417ZM112.852 38.1697C112.061 38.3795 111.375 38.5592 110.689 38.749C109.729 39.012 108.751 39.2218 107.816 39.568C106.203 40.1672 105.813 42.1215 106.991 43.4565C107.649 44.2022 108.465 44.3953 109.375 44.3221C110.837 44.2055 112.36 43.0104 112.609 41.5755C112.8 40.4802 112.775 39.3416 112.852 38.1697Z" fill="white"/>
<path d="M28.9968 33.9217C27.5477 33.6387 26.1294 33.3624 24.6773 33.0827C25.3603 30.5526 26.6309 28.6449 29.0614 27.9824C31.5596 27.3 34.0854 27.3266 36.5682 28.0657C37.2574 28.2687 37.9096 28.7215 38.5034 29.1743C39.5987 30.0033 39.9925 31.285 40.0294 32.6499C40.1032 35.2667 40.0848 37.8834 40.1125 40.5001C40.1248 41.6421 40.134 42.7873 40.2048 43.9259C40.2447 44.5418 40.3832 45.161 40.537 45.7569C40.6878 46.3395 40.9185 46.8988 41.1277 47.5014C41.0416 47.5114 40.9524 47.5314 40.8631 47.5314C39.4971 47.5314 38.1342 47.5247 36.7682 47.5414C36.5067 47.5414 36.4021 47.4415 36.3344 47.1918C36.1775 46.6092 35.9991 46.0332 35.8206 45.4173C34.9253 46.3295 33.9716 47.0819 32.8364 47.4881C30.652 48.2671 28.483 48.2838 26.4863 46.9221C24.7665 45.7503 24.0527 43.9425 24.1973 41.7719C24.345 39.5447 25.391 37.9666 27.3047 37.0944C28.7045 36.4552 30.1997 36.2022 31.6765 35.8559C32.8363 35.583 33.9778 35.2267 35.1315 34.9138C35.3899 34.8439 35.5037 34.6907 35.4607 34.4011C35.4453 34.2979 35.4607 34.188 35.4576 34.0815C35.4207 32.5667 34.9284 31.8576 33.5563 31.6179C32.8056 31.4847 32.0149 31.5014 31.2519 31.578C30.372 31.6678 29.7505 32.2538 29.3506 33.0994C29.2275 33.3591 29.1229 33.6254 28.9968 33.9184V33.9217ZM35.5284 38.1497C34.71 38.3695 33.9993 38.5492 33.2886 38.749C32.3041 39.0253 31.295 39.2284 30.3505 39.6146C28.843 40.2305 28.4953 42.0748 29.5659 43.3699C30.3566 44.3287 31.3627 44.5351 32.4549 44.2455C33.7993 43.8892 34.953 43.1568 35.2668 41.5954C35.4884 40.4968 35.4484 39.3349 35.5253 38.1464L35.5284 38.1497Z" fill="white"/>
<path d="M149.756 42.1814C148.808 45.0012 147.143 46.9255 144.47 47.6612C142.553 48.1905 140.618 48.1439 138.717 47.548C136.003 46.6957 134.37 44.6683 133.554 41.8185C133.096 40.2205 132.964 38.5759 133.077 36.898C133.185 35.2933 133.437 33.7353 134.13 32.3004C135.517 29.434 137.68 27.786 140.698 27.553C142.969 27.3799 145.076 27.8659 146.879 29.4639C147.599 30.1031 148.183 30.8655 148.645 31.7411C149.749 33.8351 150.112 37.0178 149.971 39.2284H137.957C138.015 39.7278 138.049 40.1839 138.129 40.63C138.446 42.3978 139.587 43.6895 141.11 44.0224C142.873 44.4086 144.147 43.6562 144.79 41.8451C144.845 41.6853 144.901 41.5255 144.971 41.3191C146.547 41.6021 148.125 41.8884 149.759 42.1814H149.756ZM138.055 36.0557H145.224C145.174 34.3878 144.796 32.9063 143.399 32.0107C142.175 31.2251 140.898 31.275 139.714 32.1273C138.437 33.0461 138.086 34.4643 138.055 36.0557Z" fill="white"/>
<path d="M52.3357 41.2492C52.511 40.6533 52.6556 40.0807 52.8433 39.5247C53.8186 36.6216 54.8061 33.7186 55.7906 30.8189C56.0798 29.9699 56.3629 29.121 56.6705 28.2821C56.7167 28.1522 56.8705 27.9824 56.9751 27.9824C58.5226 27.9625 60.0732 27.9691 61.6854 27.9691C61.6331 28.1256 61.5962 28.2421 61.5531 28.3553C59.2456 34.6308 56.9321 40.9096 54.6308 47.1885C54.5354 47.4515 54.4185 47.548 54.1539 47.5447C52.9602 47.528 51.7696 47.5247 50.5758 47.5447C50.2682 47.5513 50.1267 47.4381 50.0159 47.1385C47.9977 41.7086 45.9733 36.2821 43.9489 30.8522C43.6228 29.9766 43.2997 29.101 42.9736 28.2255C42.949 28.1555 42.9306 28.0823 42.9029 27.9824C43.0382 27.9758 43.1459 27.9658 43.2536 27.9658C44.6811 27.9658 46.1056 27.9758 47.5331 27.9558C47.8192 27.9525 47.9361 28.0557 48.0284 28.3387C49.4252 32.6033 51.0343 36.7848 52.2434 41.1227C52.2526 41.156 52.2864 41.1793 52.3357 41.2459V41.2492Z" fill="white"/>
<path d="M130.828 43.2334C130.93 44.2355 131.031 45.2209 131.133 46.2097C131.139 46.263 131.139 46.3162 131.142 46.3695C131.238 47.2617 131.241 47.275 130.428 47.538C129.035 47.9941 127.613 48.1606 126.174 47.871C124.011 47.4348 122.955 46.1398 122.829 43.7528C122.768 42.5742 122.755 41.3891 122.752 40.2072C122.74 37.6803 122.749 35.1568 122.749 32.63C122.749 32.4735 122.749 32.317 122.749 32.1173H120.565V27.9758H122.749V27.4165C122.749 26.4078 122.74 25.3957 122.759 24.3869C122.759 24.2338 122.845 24.0107 122.959 23.9375C124.448 22.982 125.946 22.0465 127.444 21.1077C127.463 21.0977 127.49 21.1044 127.552 21.101V27.9558H130.81V32.0973H127.57C127.57 32.2604 127.57 32.387 127.57 32.5135C127.57 35.6096 127.576 38.7091 127.58 41.8052C127.58 42.0049 127.61 42.2014 127.61 42.4011C127.61 43.4065 128.444 43.8427 129.278 43.6629C129.782 43.553 130.275 43.3899 130.831 43.2367L130.828 43.2334Z" fill="white"/>
<path d="M66.6048 0.743109C64.7035 2.10474 62.9468 3.61619 61.3592 5.34736C59.2949 7.59456 57.5843 10.1014 56.5352 13.091C56.086 14.3661 55.7752 15.6778 55.766 17.0461C55.7414 19.8326 56.8367 22.0698 58.7134 23.9075C59.581 24.7565 60.5501 25.4456 61.5808 26.0782C60.9224 25.9616 60.2609 25.8651 59.6056 25.7253C57.4643 25.2725 55.3845 24.6133 53.4524 23.4947C52.3172 22.8389 51.2773 22.0365 50.4497 20.9579C48.9114 18.9537 48.6222 16.6799 49.2375 14.2163C49.8559 11.7361 51.1819 9.74188 52.8987 8.02402C55.0923 5.83009 57.6612 4.28868 60.3778 3.01028C62.3407 2.0881 64.3651 1.35568 66.4356 0.7764C66.491 0.759754 66.5494 0.749767 66.6048 0.73645V0.743109Z" fill="white"/>
<path d="M64.9527 27.9857H69.6845V47.5114H64.9527V27.9857Z" fill="white"/>
<path d="M84.006 6.19629C84.6182 7.55792 84.7997 8.94952 84.6182 10.3844C84.2798 13.0611 83.203 15.4015 81.6586 17.4855C79.3388 20.615 76.3053 22.5892 72.798 23.7777C72.7795 23.7843 72.758 23.7644 72.7334 23.7577C73.2564 23.3216 73.7979 22.9154 74.2932 22.446C77.296 19.6095 79.4311 16.1439 80.6371 12.029C81.0309 10.6807 81.0832 9.2891 80.8986 7.88418C80.8833 7.77099 80.9632 7.56458 81.0494 7.52463C82.0185 7.07187 82.9969 6.6424 84.0091 6.19296L84.006 6.19629Z" fill="white"/>
<path d="M107.677 52.2588C108.422 51.533 109.283 51.4132 110.2 51.6862C111.141 51.9658 111.701 52.7815 111.704 53.8335C111.71 55.2018 111.707 56.5701 111.704 57.9384C111.704 58.3911 111.575 58.521 111.151 58.5276C111.052 58.5276 110.954 58.5276 110.855 58.5276C110.449 58.5176 110.308 58.3712 110.308 57.9217C110.305 56.6067 110.308 55.2917 110.308 53.9733C110.308 53.1277 109.806 52.7116 109.049 52.918C108.585 53.0445 108.382 53.3341 108.382 53.9101C108.379 55.2251 108.382 56.5401 108.382 57.8585C108.382 58.4344 108.28 58.5276 107.677 58.5276C107.086 58.5276 106.982 58.4244 106.979 57.8451C106.979 56.5568 106.957 55.265 106.985 53.9766C107.009 52.9213 106.185 52.7149 105.579 52.9579C105.179 53.1177 105.062 53.4906 105.062 53.9234C105.062 55.2384 105.062 56.5534 105.062 57.8718C105.062 58.4344 104.954 58.5276 104.345 58.5276C103.782 58.5276 103.659 58.4144 103.659 57.8718C103.659 56.61 103.699 55.3449 103.65 54.0865C103.588 52.5651 104.594 51.5097 106.105 51.5563C106.708 51.5763 107.228 51.8093 107.683 52.2555L107.677 52.2588Z" fill="white"/>
<path d="M76.5453 55.3982H74.0686C74.0686 56.2472 74.0686 57.0695 74.0686 57.8884C74.0686 58.3978 73.9517 58.521 73.4871 58.5277C73.3764 58.5277 73.2656 58.5277 73.1549 58.5277C72.7611 58.5177 72.6288 58.3812 72.6288 57.945C72.6226 57.0828 72.6288 56.2172 72.6288 55.3549C72.6288 54.1731 72.6257 52.9912 72.6288 51.806C72.6349 50.2646 73.4779 49.2659 74.9054 49.1227C75.5884 49.0561 76.2561 49.1327 76.8652 49.5089C77.5698 49.945 77.9697 50.6075 77.9789 51.4864C77.9943 53.6504 77.9851 55.8177 77.9882 57.9817C77.9882 58.3445 77.8343 58.5243 77.499 58.5243C77.4867 58.5243 77.4744 58.5243 77.4621 58.5243C76.576 58.5476 76.5453 58.5143 76.5453 57.5655C76.5453 56.8497 76.5453 56.1373 76.5453 55.3949V55.3982ZM76.5083 54.0399C76.5083 53.1177 76.5299 52.2322 76.4991 51.3499C76.4837 50.9105 76.213 50.5976 75.8161 50.521C75.4869 50.4577 75.1331 50.4577 74.8008 50.521C74.4224 50.5909 74.1609 50.8839 74.124 51.31C74.0778 51.836 74.0809 52.3653 74.0717 52.8947C74.0655 53.2742 74.0717 53.6537 74.0717 54.0399H76.5083Z" fill="white"/>
<path d="M47.5116 58.1381C46.7332 58.5309 46.0133 58.5043 45.2964 58.218C44.3858 57.8518 43.9027 57.1061 43.8935 56.0607C43.8874 55.3815 43.8935 54.7057 43.8935 54.0266C43.8966 52.7681 44.4904 51.9458 45.6287 51.6562C46.4194 51.4564 47.1947 51.513 47.9115 51.9658C48.5545 52.3753 48.8991 52.9879 48.8991 53.8002C48.9053 55.4215 48.9022 57.0428 48.8991 58.6641C48.8991 59.9991 48.2961 60.8048 47.0655 61.0312C46.2379 61.1843 45.4226 61.131 44.7088 60.5551C44.2258 60.1656 43.9643 59.6462 43.9058 59.007C43.872 58.6408 44.0197 58.4577 44.3581 58.4411C44.5057 58.4344 44.6534 58.4444 44.8011 58.4377C45.0934 58.4211 45.2441 58.5576 45.3087 58.8772C45.4933 59.7761 46.644 60.1323 47.2685 59.4931C47.6254 59.1269 47.4685 58.6541 47.5085 58.1348L47.5116 58.1381ZM47.5054 54.9787C47.5054 54.6325 47.5085 54.2896 47.5054 53.9433C47.4962 53.2376 47.1178 52.8713 46.4071 52.8713C45.7025 52.8713 45.318 53.2376 45.3026 53.9467C45.2903 54.5692 45.3026 55.1951 45.3026 55.8177C45.3026 56.8464 45.8994 57.3225 46.8286 57.0361C47.3054 56.8897 47.4962 56.63 47.5085 56.094C47.5146 55.7211 47.5085 55.3516 47.5085 54.9787H47.5054Z" fill="white"/>
<path d="M116.501 58.1381C115.756 58.531 115.039 58.5077 114.323 58.2147C113.43 57.8518 112.953 57.1094 112.95 56.084C112.947 54.8223 112.95 53.5572 112.95 52.2954C112.95 51.826 113.083 51.6895 113.526 51.6795C113.624 51.6795 113.723 51.6762 113.821 51.6795C114.203 51.6962 114.347 51.8493 114.35 52.2721C114.353 53.4939 114.356 54.7191 114.35 55.9409C114.35 56.3836 114.418 56.7732 114.836 56.9629C115.307 57.176 115.796 57.1993 116.19 56.8264C116.365 56.66 116.479 56.3271 116.485 56.064C116.516 54.8289 116.498 53.5905 116.498 52.3553C116.498 51.7927 116.621 51.6795 117.205 51.6795C117.784 51.6795 117.901 51.7927 117.901 52.3687C117.901 54.4827 117.873 56.5967 117.91 58.7074C117.934 60.1589 116.956 60.9579 115.879 61.0678C115.316 61.1244 114.75 61.1177 114.215 60.8481C113.529 60.5018 113.107 59.9392 112.969 59.1402C112.883 58.6408 113.043 58.4444 113.504 58.4378C113.64 58.4378 113.775 58.4378 113.91 58.4378C114.172 58.4378 114.329 58.5776 114.35 58.8639C114.384 59.2933 114.572 59.5963 114.962 59.7128C115.418 59.846 115.882 59.8593 116.258 59.5031C116.633 59.1469 116.464 58.6408 116.504 58.1348L116.501 58.1381Z" fill="white"/>
<path d="M94.9401 51.6928C94.9401 51.1269 94.9401 50.4644 94.9401 49.8052C94.9401 49.3191 95.057 49.1959 95.5062 49.1893C95.6416 49.1893 95.7769 49.186 95.9123 49.1893C96.1923 49.2026 96.343 49.3657 96.343 49.6687C96.343 51.9691 96.3646 54.2696 96.3307 56.5701C96.3184 57.389 95.8692 57.9916 95.1862 58.3412C94.291 58.794 93.3741 58.8006 92.4819 58.3379C91.7189 57.9384 91.3251 57.2559 91.3282 56.327C91.3282 55.5547 91.3282 54.7856 91.3282 54.0133C91.3282 52.6749 92.0727 51.7361 93.3188 51.6096C93.8418 51.5563 94.3771 51.6595 94.9401 51.6928ZM94.9401 55.1185C94.9401 54.719 94.9463 54.3229 94.9401 53.9234C94.9278 53.2442 94.5525 52.8813 93.8572 52.8714C93.1465 52.8614 92.7434 53.2342 92.7373 53.9234C92.7311 54.6391 92.7373 55.3549 92.7373 56.0707C92.7373 57.0794 93.3218 57.5488 94.2386 57.2759C94.7278 57.1294 94.934 56.8531 94.9432 56.3104C94.9493 55.9142 94.9432 55.5147 94.9432 55.1152L94.9401 55.1185Z" fill="white"/>
<path d="M63.8728 51.806C64.5404 51.5231 65.1681 51.4864 65.8049 51.6629C66.8233 51.9459 67.414 52.7482 67.4201 53.8801C67.4294 55.2218 67.4232 56.5634 67.4201 57.9051C67.4201 58.3845 67.294 58.521 66.8571 58.5276C66.7587 58.5276 66.6602 58.5276 66.5618 58.5276C66.1587 58.5177 66.0141 58.3645 66.0141 57.9217C66.0141 56.62 66.0141 55.3183 66.0141 54.0166C66.0141 53.2576 65.6572 52.8747 64.9466 52.8747C64.2512 52.8747 63.8759 53.2709 63.8728 54.0266C63.8728 55.315 63.8728 56.6034 63.8728 57.8918C63.8728 58.3945 63.7467 58.5276 63.2852 58.531C63.2114 58.531 63.1375 58.531 63.0637 58.531C62.596 58.5276 62.473 58.3945 62.4699 57.8984C62.4699 56.7166 62.4699 55.5347 62.4699 54.3495C62.4699 52.8348 62.4699 51.32 62.4699 49.8052C62.4699 49.3225 62.5899 49.196 63.0329 49.1893C63.156 49.1893 63.279 49.1893 63.4021 49.1893C63.719 49.1926 63.8728 49.3624 63.8728 49.7087C63.8728 50.3845 63.8728 51.0603 63.8728 51.8027V51.806Z" fill="white"/>
<path d="M99.0043 55.9375C98.9243 56.7532 99.1673 57.166 99.7611 57.2492C100.619 57.3691 101.13 56.9962 101.158 56.3637C101.17 56.074 101.352 55.9309 101.629 55.9109C102.533 55.8476 102.755 56.1639 102.435 57.0861C102.219 57.7086 101.801 58.1281 101.241 58.3711C100.389 58.7407 99.5304 58.7107 98.7058 58.2912C97.9921 57.9284 97.5891 57.3025 97.5798 56.4336C97.5706 55.5547 97.5706 54.6791 97.5798 53.8002C97.5921 52.9812 97.949 52.3653 98.6105 51.9958C99.5673 51.4631 100.558 51.4598 101.515 51.9891C102.232 52.3853 102.607 53.0445 102.564 53.9367C102.521 54.7889 102.078 55.3616 101.373 55.6479C100.933 55.8243 100.444 55.8709 99.9734 55.9342C99.6596 55.9741 99.3396 55.9408 99.0043 55.9408V55.9375ZM99.0043 54.6458C99.5519 54.6058 100.09 54.6158 100.61 54.516C101.059 54.4294 101.247 54.0266 101.139 53.5938C101.038 53.171 100.616 52.9313 100.001 52.9446C99.4596 52.9546 99.0658 53.2043 99.0104 53.6304C98.9704 53.9367 99.0012 54.2563 99.0012 54.6491L99.0043 54.6458Z" fill="white"/>
<path d="M33.5409 53.1111C34.3069 53.1111 35.0176 53.1111 35.7314 53.1111C36.2021 53.1111 36.3406 53.2709 36.3406 53.7836C36.3406 54.303 36.2083 54.4528 35.7345 54.4528C35.0453 54.4528 34.3562 54.4528 33.667 54.4561C33.6424 54.4561 33.6209 54.4661 33.5686 54.4761C33.5686 55.0886 33.5224 55.7112 33.5839 56.3204C33.6362 56.8331 34.0762 57.1561 34.6023 57.1727C35.1068 57.1894 35.6114 57.1727 36.116 57.1827C36.559 57.1894 36.6944 57.3691 36.6851 57.9018C36.6759 58.3812 36.5528 58.5277 36.1129 58.521C35.4391 58.5077 34.7561 58.5443 34.0916 58.4378C32.8056 58.2314 32.0733 57.2426 32.0733 55.841C32.0733 54.5127 32.101 53.181 32.0672 51.8527C32.0241 50.1615 33.2363 49.2759 34.4638 49.1993C35.0392 49.1627 35.6206 49.186 36.199 49.1927C36.559 49.196 36.6759 49.3458 36.6882 49.7753C36.7036 50.2946 36.5928 50.4911 36.2175 50.511C35.7498 50.5343 35.2822 50.511 34.8146 50.521C33.9101 50.5377 33.5439 50.9372 33.5439 51.9126C33.5439 52.2955 33.5439 52.6783 33.5439 53.1144L33.5409 53.1111Z" fill="white"/>
<path d="M88.7716 54.2896C88.8331 53.7902 88.8362 53.3441 88.427 53.0744C87.9993 52.7948 87.5255 52.7682 87.1041 53.0744C86.941 53.191 86.8179 53.4373 86.7656 53.6537C86.6795 53.99 86.538 54.1464 86.2057 54.1464C85.332 54.1464 85.1474 53.8668 85.4858 52.9879C85.5227 52.8913 85.5658 52.7948 85.6181 52.7016C86.4641 51.1835 89.0423 51.1468 89.8822 52.6683C90.0791 53.0245 90.1591 53.4906 90.1899 53.9134C90.2391 54.6292 90.1806 55.3483 90.2083 56.0674C90.2729 57.7286 89.2146 58.4777 87.9993 58.5942C87.2979 58.6608 86.6272 58.521 86.0396 58.0682C84.8982 57.1893 84.9566 55.4848 86.1565 54.7091C86.6549 54.3861 87.2025 54.2696 87.7809 54.2863C88.1009 54.2963 88.4178 54.2863 88.7746 54.2863L88.7716 54.2896ZM88.7839 55.578C88.2516 55.6113 87.7348 55.598 87.2363 55.6878C86.7472 55.7777 86.5318 56.2105 86.6703 56.65C86.7964 57.0428 87.1287 57.2526 87.6455 57.2625C88.0916 57.2725 88.5101 57.2126 88.7316 56.7099C88.7562 56.65 88.7777 56.5834 88.7808 56.5201C88.7869 56.2338 88.7808 55.9442 88.7808 55.5813L88.7839 55.578Z" fill="white"/>
<path d="M69.6968 20.5517V25.2625H64.9588V20.5517H69.6968Z" fill="white"/>
<path d="M58.7072 51.4831C59.1441 51.6029 59.6025 51.6695 60.0117 51.856C60.7101 52.1722 61.0454 52.8081 61.1039 53.6138C61.1285 53.9533 60.9777 54.1431 60.6516 54.1464C60.4916 54.1464 60.3316 54.1464 60.1717 54.1464C59.9102 54.1464 59.7748 54.0166 59.7163 53.7336C59.5317 52.878 58.4703 52.5551 57.8735 53.1577C57.6181 53.4174 57.6089 53.7203 57.9104 53.9234C58.1873 54.1132 58.5042 54.2363 58.8087 54.3728C59.3071 54.5992 59.8271 54.7723 60.304 55.0387C60.9162 55.3782 61.2638 55.9342 61.2362 56.7166C61.2085 57.4756 60.8331 57.9916 60.2332 58.3112C59.2425 58.8373 58.2334 58.8073 57.2612 58.258C56.6397 57.9084 56.3106 57.3125 56.2275 56.5634C56.1844 56.1573 56.3382 55.9675 56.7197 55.9475C56.8797 55.9409 57.0397 55.9409 57.1997 55.9475C57.4397 55.9608 57.5689 56.094 57.6181 56.3603C57.7842 57.2792 58.9872 57.7087 59.6548 57.0928C59.9071 56.8597 59.9194 56.4835 59.6363 56.2738C59.3748 56.084 59.0733 55.9542 58.781 55.8177C58.218 55.5547 57.6119 55.3716 57.092 55.0353C56.0398 54.3528 56.0029 52.8747 57.0028 52.109C57.3227 51.8626 57.7319 51.7461 58.1104 51.6063C58.2919 51.5397 58.5011 51.563 58.6949 51.543C58.7011 51.523 58.7072 51.4997 58.7134 51.4798L58.7072 51.4831Z" fill="white"/>
<path d="M37.7435 55.8277C37.7435 55.2418 37.7681 54.6558 37.7373 54.0732C37.6635 52.6949 38.5034 51.826 39.6048 51.6296C40.4047 51.4865 41.1769 51.5797 41.8476 52.1323C42.3337 52.5318 42.6075 53.0678 42.6137 53.7336C42.6229 55.1419 42.6198 56.5501 42.6198 57.9584C42.6198 58.3612 42.4783 58.511 42.1153 58.5243C41.9922 58.5277 41.8692 58.5277 41.7461 58.5243C41.3615 58.5143 41.2169 58.3612 41.2169 57.9417C41.2169 56.6267 41.2169 55.3117 41.2169 53.9967C41.2169 53.2576 40.8508 52.8647 40.174 52.8714C39.5063 52.878 39.1495 53.2576 39.1464 53.9767C39.1433 55.2651 39.1464 56.5535 39.1464 57.8418C39.1464 58.3978 39.0295 58.5243 38.5249 58.5243C38.4511 58.5243 38.3772 58.5243 38.3034 58.5243C37.8819 58.5177 37.7496 58.3812 37.7465 57.9351C37.7435 57.2293 37.7465 56.5268 37.7465 55.821L37.7435 55.8277Z" fill="white"/>
<path d="M80.7725 55.1152C80.7725 55.5014 80.7694 55.8876 80.7725 56.2705C80.7786 56.9097 81.0648 57.2526 81.6524 57.3291C82.2985 57.4124 82.7753 57.0994 82.9046 56.5068C83.0184 55.9875 83.8245 55.6878 84.166 56.074C84.289 56.2105 84.3198 56.5168 84.2859 56.7266C84.1629 57.4623 83.7629 58.0149 83.1445 58.3412C82.2216 58.8273 81.2832 58.794 80.3879 58.2646C79.7111 57.8618 79.3696 57.2126 79.3726 56.367C79.3726 55.5813 79.4003 54.7956 79.3665 54.0133C79.3142 52.7615 80.0649 51.856 81.1355 51.6396C82.2062 51.4232 83.2122 51.5563 83.926 52.5784C84.1167 52.8514 84.2183 53.2176 84.2982 53.5572C84.3782 53.8968 84.1875 54.1198 83.8644 54.1431C83.6922 54.1531 83.5199 54.1431 83.3476 54.1431C83.1076 54.1431 82.9292 54.0299 82.9138 53.7603C82.8553 52.8314 81.6401 52.6583 81.1324 53.1011C80.9479 53.2609 80.8248 53.5772 80.7879 53.8435C80.7325 54.2596 80.7725 54.6924 80.7725 55.1186V55.1152Z" fill="white"/>
<path d="M51.8373 53.8668C51.8373 55.2085 51.8373 56.5501 51.8373 57.8918C51.8373 58.3845 51.705 58.521 51.2435 58.5276C51.1574 58.5276 51.0712 58.5276 50.9851 58.5276C50.5697 58.521 50.4405 58.3845 50.4405 57.9284C50.4405 56.0008 50.4405 54.0765 50.4405 52.1489C50.4405 51.3533 50.4405 50.5543 50.4405 49.7586C50.4405 49.3258 50.5667 49.1993 50.9697 49.1926C51.0681 49.1926 51.1666 49.1926 51.265 49.1926C51.7142 49.1993 51.8373 49.3258 51.8373 49.8019C51.8373 51.1568 51.8373 52.5118 51.8373 53.8668Z" fill="white"/>
<path d="M54.8768 55.1153C54.8768 56.0308 54.8768 56.9463 54.8768 57.8618C54.8768 58.4111 54.763 58.5243 54.2431 58.5277C54.1323 58.5277 54.0216 58.5343 53.9108 58.5277C53.6401 58.5044 53.4708 58.3479 53.4708 58.0483C53.4678 56.0841 53.4708 54.1198 53.4708 52.1556C53.4708 52.0924 53.4893 52.0258 53.5139 51.9659C53.6493 51.6396 53.9631 51.6463 54.5138 51.7029C54.7876 51.7295 54.8799 51.9592 54.8799 52.2522C54.8707 53.2076 54.8799 54.1631 54.8799 55.1186L54.8768 55.1153Z" fill="white"/>
<path d="M77.1698 0.749789C78.5235 0.986161 81.3109 2.59415 82.2185 3.66948C81.4555 3.98908 80.714 4.30202 79.9449 4.62495C79.225 3.16344 78.3266 1.87172 77.1698 0.74646V0.749789Z" fill="white"/>
<path d="M54.1909 49.9017C54.6924 49.9017 55.04 50.2247 55.0369 50.6841C55.0369 51.1302 54.6677 51.4798 54.1909 51.4897C53.7017 51.4964 53.311 51.1302 53.3202 50.6708C53.3294 50.2247 53.6925 49.9017 54.1878 49.9051L54.1909 49.9017Z" fill="white"/>
</svg>
