<svg width="24" height="25" viewBox="0 0 24 25" fill="none" xmlns="http://www.w3.org/2000/svg">
<path d="M16.114 9.6526C16.666 9.1006 17.214 7.8126 14.914 9.3766C12.7655 10.8553 10.6024 12.3127 8.42501 13.7486C8.09345 13.8985 7.735 13.9799 7.37121 13.9878C7.00741 13.9957 6.64577 13.93 6.30801 13.7946C4.92801 13.3806 3.31701 12.8286 3.31701 12.8286C3.31701 12.8286 2.21701 12.1376 4.10001 11.4016C4.10001 11.4016 12.061 8.1346 14.822 6.9836C15.88 6.5236 19.469 5.0516 19.469 5.0516C19.469 5.0516 21.126 4.4066 20.988 5.9716C20.942 6.6156 20.574 8.8716 20.206 11.3096C19.653 14.7606 19.055 18.5346 19.055 18.5346C19.055 18.5346 18.963 19.5926 18.181 19.7766C17.3439 19.7624 16.5351 19.4713 15.881 18.9486C15.697 18.8106 12.43 16.7396 11.233 15.7276C11.1112 15.6451 11.0123 15.5332 10.9454 15.4022C10.8786 15.2712 10.8459 15.1254 10.8505 14.9784C10.8551 14.8314 10.8968 14.688 10.9717 14.5614C11.0466 14.4349 11.1523 14.3293 11.279 14.2546C12.9208 12.7525 14.5327 11.2182 16.114 9.6526Z" fill="white"/>
</svg>
